{
    "asset" : {
        "generator" : "Khronos glTF Blender I/O v1.8.19",
        "version" : "2.0"
    },
    "scene" : 0,
    "scenes" : [
        {
            "name" : "Scene",
            "nodes" : [
                6
            ]
        }
    ],
    "nodes" : [
        {
            "mesh" : 0,
            "name" : "Object_8",
            "scale" : [
                0.25,
                0.25,
                0.25
            ]
        },
        {
            "children" : [
                0
            ],
            "name" : "Clouds 2_3",
            "rotation" : [
                0.04608521983027458,
                0.9714301228523254,
                -0.09500975906848907,
                0.2125394493341446
            ],
            "scale" : [
                1.4327234029769897,
                1.4327234029769897,
                1.4327235221862793
            ],
            "translation" : [
                -0.42807674407958984,
                9.158965110778809,
                5.290316581726074
            ]
        },
        {
            "mesh" : 1,
            "name" : "Object_4",
            "scale" : [
                0.25,
                0.25,
                0.25
            ]
        },
        {
            "children" : [
                2
            ],
            "name" : "Clouds_0",
            "rotation" : [
                -0.1057225689291954,
                0.7333894371986389,
                -0.10721869021654129,
                0.6629229784011841
            ],
            "translation" : [
                -1.8384162187576294,
                4.0375776290893555,
                7.578708648681641
            ]
        },
        {
            "children" : [
                1,
                3
            ],
            "name" : "GLTF_SceneRootNode",
            "rotation" : [
                0.7071068286895752,
                0,
                0,
                0.7071068286895752
            ]
        },
        {
            "children" : [
                4
            ],
            "name" : "root"
        },
        {
            "children" : [
                5
            ],
            "name" : "Sketchfab_model",
            "rotation" : [
                -0.7071068286895752,
                0,
                0,
                0.7071068286895752
            ]
        }
    ],
    "materials" : [
        {
            "alphaMode" : "BLEND",
            "name" : "Lean_Clouds",
            "pbrMetallicRoughness" : {
                "baseColorFactor" : [
                    1,
                    1,
                    1,
                    1
                ],
                "metallicFactor" : 0,
                "roughnessFactor" : 0.35820895433425903
            }
        }
    ],
    "meshes" : [
        {
            "name" : "Object_2",
            "primitives" : [
                {
                    "attributes" : {
                        "POSITION" : 0,
                        "NORMAL" : 1
                    },
                    "indices" : 2,
                    "material" : 0
                }
            ]
        },
        {
            "name" : "Object_0",
            "primitives" : [
                {
                    "attributes" : {
                        "POSITION" : 3,
                        "NORMAL" : 4
                    },
                    "indices" : 5,
                    "material" : 0
                }
            ]
        }
    ],
    "accessors" : [
        {
            "bufferView" : 0,
            "componentType" : 5126,
            "count" : 33769,
            "max" : [
                10.004436492919922,
                15.834836959838867,
                20.245458602905273
            ],
            "min" : [
                -14.52457332611084,
                -3.9010043144226074,
                -18.29033088684082
            ],
            "type" : "VEC3"
        },
        {
            "bufferView" : 1,
            "componentType" : 5126,
            "count" : 33769,
            "type" : "VEC3"
        },
        {
            "bufferView" : 2,
            "componentType" : 5123,
            "count" : 202425,
            "type" : "SCALAR"
        },
        {
            "bufferView" : 3,
            "componentType" : 5126,
            "count" : 27496,
            "max" : [
                11.675326347351074,
                4.409993648529053,
                21.490137100219727
            ],
            "min" : [
                -14.52457332611084,
                -6.207612037658691,
                -17.187427520751953
            ],
            "type" : "VEC3"
        },
        {
            "bufferView" : 4,
            "componentType" : 5126,
            "count" : 27496,
            "type" : "VEC3"
        },
        {
            "bufferView" : 5,
            "componentType" : 5123,
            "count" : 164808,
            "type" : "SCALAR"
        }
    ],
    "bufferViews" : [
        {
            "buffer" : 0,
            "byteLength" : 405228,
            "byteOffset" : 0
        },
        {
            "buffer" : 0,
            "byteLength" : 405228,
            "byteOffset" : 405228
        },
        {
            "buffer" : 0,
            "byteLength" : 404850,
            "byteOffset" : 810456
        },
        {
            "buffer" : 0,
            "byteLength" : 329952,
            "byteOffset" : 1215308
        },
        {
            "buffer" : 0,
            "byteLength" : 329952,
            "byteOffset" : 1545260
        },
        {
            "buffer" : 0,
            "byteLength" : 329616,
            "byteOffset" : 1875212
        }
    ],
    "buffers" : [
        {
            "byteLength" : 2204828,
            "uri" : "data:application/octet-stream;base64,"
        }
    ]
}
